<svg width="268" height="21" viewBox="0 0 268 21" fill="none" xmlns="http://www.w3.org/2000/svg">
<path d="M1.07666 14V11.9419H3.13477V14H1.07666ZM10.1115 14V11.9419H12.1696V14H10.1115ZM19.1463 14V11.9419H21.2044V14H19.1463ZM28.1811 14V11.9419H30.2392V14H28.1811ZM37.2159 14V11.9419H39.274V14H37.2159ZM46.2507 14V11.9419H48.3088V14H46.2507ZM55.2855 14V11.9419H57.3436V14H55.2855ZM64.3203 14V11.9419H66.3784V14H64.3203ZM73.3551 14V11.9419H75.4132V14H73.3551ZM82.3899 14V11.9419H84.448V14H82.3899Z" fill="#D2D7DE"/>
<path d="M183.077 14V11.9419H185.135V14H183.077ZM192.111 14V11.9419H194.17V14H192.111ZM201.146 14V11.9419H203.204V14H201.146ZM210.181 14V11.9419H212.239V14H210.181ZM219.216 14V11.9419H221.274V14H219.216ZM228.251 14V11.9419H230.309V14H228.251ZM237.285 14V11.9419H239.344V14H237.285ZM246.32 14V11.9419H248.378V14H246.32ZM255.355 14V11.9419H257.413V14H255.355ZM264.39 14V11.9419H266.448V14H264.39Z" fill="#D2D7DE"/>
<path d="M142.131 9.75586L132.527 19.3598L122.923 9.75574" stroke="#713A3A" stroke-width="2" stroke-linecap="round"/>
</svg>
